<svg xmlns="http://www.w3.org/2000/svg" viewBox="0 0 120 150" width="120" height="150" preserveAspectRatio="xMidYMid meet" style="width: 100%; height: 100%; transform: translate3d(0px, 0px, 0px);"><defs><clipPath id="__lottie_element_48"><rect width="120" height="150" x="0" y="0"></rect></clipPath><mask id="__lottie_element_50"><rect fill="#ffffff" width="120" height="150" transform="matrix(1,0,0,1,-60,-75)"></rect><path fill="#000000" clip-rule="nonzero" d=" M-20,-20 C-20,-20 -20,20 -20,20 C-20,20 20,20 20,20 C20,20 20,-20 20,-20 C20,-20 -20,-20 -20,-20" fill-opacity="1"></path></mask><mask id="__lottie_element_53"><rect fill="#ffffff" width="120" height="150" transform="matrix(1,0,0,1,-60,-75)"></rect><path fill="#000000" clip-rule="nonzero" d=" M-20,-20 C-20,-20 -20,20 -20,20 C-20,20 20,20 20,20 C20,20 20,-20 20,-20 C20,-20 -20,-20 -20,-20" fill-opacity="1"></path></mask></defs><g clip-path="url(#__lottie_element_48)"><g mask="url(#__lottie_element_50)" transform="matrix(1,0,0,1,60,75)" opacity="1" style="display: block;"><path stroke-linecap="round" stroke-linejoin="miter" fill-opacity="0" stroke-miterlimit="4" stroke="rgb(255,255,255)" stroke-opacity="0.1" stroke-width="7" d=" M10,-10 C10,-10 10,10 10,10 C10,21.04599952697754 1.0460000038146973,30 -10,30 C-10,30 -10,30 -10,30 C-21.04599952697754,30 -30,21.04599952697754 -30,10 C-30,10 -30,-10 -30,-10 C-30,-32.090999603271484 -12.090999603271484,-50 10,-50 C10,-50 10,-50 10,-50 C32.090999603271484,-50 50,-32.090999603271484 50,-10 C50,-10 50,20 50,20 C50,47.61399841308594 27.61400032043457,70 0,70 C0,70 0,70 0,70 C-27.61400032043457,70 -50,47.61399841308594 -50,20 C-50,20 -50,-20 -50,-20 C-50,-47.61399841308594 -27.61400032043457,-70 0,-70 C0,-70 0,-70 0,-70 C27.61400032043457,-70 50,-47.61399841308594 50,-20 C50,-20 50,0 50,0 M-10,10 C-10,10 -10,-10 -10,-10 C-10,-21.04599952697754 -1.0460000038146973,-30 10,-30 C10,-30 10,-30 10,-30 C21.04599952697754,-30 30,-21.04599952697754 30,-10 C30,-10 30,10 30,10 C30,32.090999603271484 12.090999603271484,50 -10,50 C-10,50 -10,50 -10,50 C-32.090999603271484,50 -50,32.090999603271484 -50,10 C-50,10 -50,-20 -50,-20 C-50,-47.61399841308594 -27.61400032043457,-70 0,-70 C0,-70 0,-70 0,-70 C27.61400032043457,-70 50,-47.61399841308594 50,-20 C50,-20 50,20 50,20 C50,47.61399841308594 27.61400032043457,70 0,70 C0,70 0,70 0,70 C-27.61400032043457,70 -50,47.61399841308594 -50,20 C-50,20 -50,0 -50,0"></path></g><g mask="url(#__lottie_element_53)" transform="matrix(1,0,0,1,60,75)" opacity="1" style="display: block;"><path stroke-linecap="round" stroke-linejoin="miter" fill-opacity="0" stroke-miterlimit="4" stroke="rgb(255,255,255)" stroke-opacity="1" stroke-width="7" d=" M10,-10 C10,-10 10,10 10,10 C10,21.04599952697754 1.0460000038146973,30 -10,30 C-10,30 -10,30 -10,30 C-21.04599952697754,30 -30,21.04599952697754 -30,10 C-30,10 -30,-10 -30,-10 C-30,-32.090999603271484 -12.090999603271484,-50 10,-50 C10,-50 10,-50 10,-50 C32.090999603271484,-50 50,-32.090999603271484 50,-10 C50,-10 50,20 50,20 C50,47.61399841308594 27.61400032043457,70 0,70 C0,70 0,70 0,70 C-27.61400032043457,70 -50,47.61399841308594 -50,20 C-50,20 -50,9.35200023651123 -50,-0.9570000171661377 M-10,10 C-10,10 -10,-10 -10,-10 C-10,-21.04599952697754 -1.0460000038146973,-30 10,-30 C10,-30 10,-30 10,-30 C21.04599952697754,-30 30,-21.04599952697754 30,-10 C30,-10 30,10 30,10 C30,32.090999603271484 12.090999603271484,50 -10,50 C-10,50 -10,50 -10,50 C-32.090999603271484,50 -50,32.090999603271484 -50,10 C-50,10 -50,-20 -50,-20 C-50,-47.61399841308594 -27.61400032043457,-70 0,-70 C0,-70 0,-70 0,-70 C27.61400032043457,-70 50,-47.61399841308594 50,-20 C50,-20 50,-9.35200023651123 50,0.9570000171661377"></path></g><g transform="matrix(1,0,0,1,60,75)" opacity="1" style="display: block;"><path fill="rgb(255,255,255)" fill-opacity="1" d=" M6.5,-13.5 C6.5,-13.5 6.5,-3.5 6.5,-3.5 C6.5,-3.5 -6.5,-3.5 -6.5,-3.5 C-6.5,-3.5 -6.5,-10 -6.5,-10 C-6.5,-11.20199966430664 -6.36299991607666,-12.371000289916992 -6.118000030517578,-13.5 C-6.118000030517578,-13.5 -13.23799991607666,-13.5 -13.23799991607666,-13.5 C-13.409000396728516,-12.357999801635742 -13.5,-11.189000129699707 -13.5,-10 C-13.5,-10 -13.5,13.5 -13.5,13.5 C-13.5,13.5 -6.5,13.5 -6.5,13.5 C-6.5,13.5 -6.5,3.5 -6.5,3.5 C-6.5,3.5 6.5,3.5 6.5,3.5 C6.5,3.5 6.5,10 6.5,10 C6.5,11.201000213623047 6.36299991607666,12.371000289916992 6.118000030517578,13.5 C6.118000030517578,13.5 13.23799991607666,13.5 13.23799991607666,13.5 C13.409000396728516,12.357999801635742 13.5,11.189000129699707 13.5,10 C13.5,10 13.5,-13.5 13.5,-13.5 C13.5,-13.5 6.5,-13.5 6.5,-13.5z"></path></g></g></svg>